<svg width="64" height="64" viewBox="0 0 64 64" fill="none" xmlns="http://www.w3.org/2000/svg">
<path d="M13.2501 36.2501H38.2501C38.9404 36.2501 39.5001 35.6905 39.5001 35.0001V30.0001C39.5001 29.3098 38.9404 28.7501 38.2501 28.7501H37V17.5C37 11.2968 31.9532 6.25 25.75 6.25C19.5467 6.25 14.5 11.2968 14.5 17.5V28.7501H13.25C12.5596 28.7501 12 29.3098 12 30.0001V35.0001C12.0001 35.6905 12.5597 36.2501 13.2501 36.2501ZM17.0001 17.5C17.0001 12.6753 20.9254 8.75 25.7501 8.75C30.5749 8.75 34.5001 12.6753 34.5001 17.5V28.7501H17.0001V17.5ZM14.5001 31.2501H37.0001V33.7501H14.5001V31.2501Z" fill="#4F4F4F"/>
<path d="M29.5 16.25H27V13.75C27 13.0596 26.4404 12.5 25.75 12.5C25.0596 12.5 24.5 13.0596 24.5 13.75V16.25H22C21.3096 16.25 20.75 16.8096 20.75 17.5C20.75 18.1904 21.3096 18.75 22 18.75H24.5V23.75C24.5 24.4404 25.0596 25 25.75 25C26.4404 25 27 24.4404 27 23.75V18.75H29.5C30.1904 18.75 30.75 18.1904 30.75 17.5C30.75 16.8096 30.1904 16.25 29.5 16.25Z" fill="#4F4F4F"/>
<path d="M34.1429 41.5C34.1429 40.8096 33.5832 40.25 32.8929 40.25H18.6074C17.917 40.25 17.3574 40.8096 17.3574 41.5C17.3574 42.1904 17.917 42.75 18.6074 42.75H32.8929C33.5833 42.75 34.1429 42.1904 34.1429 41.5Z" fill="#4F4F4F"/>
<path d="M13.25 45.249C12.5596 45.249 12 45.8086 12 46.499C12 47.1894 12.5596 47.749 13.25 47.749H20.7495C21.4399 47.749 21.9995 47.1894 21.9995 46.499C21.9995 45.8086 21.4399 45.249 20.7495 45.249H13.25Z" fill="#4F4F4F"/>
<path d="M61.2454 27.1255L59.5955 25.4756C59.1085 24.9887 58.4599 24.7205 57.7688 24.7205C57.0778 24.7205 56.429 24.9888 55.9422 25.4756L49.5001 31.9177V1.25C49.5001 0.559623 48.9403 0 48.2501 0H18.2502C17.5598 0 17.0002 0.559623 17.0002 1.25C17.0002 1.94037 17.5598 2.49999 18.2502 2.49999H46.9999V34.4177L36.1677 45.2498H30.7495C30.0591 45.2498 29.4995 45.8094 29.4995 46.4998C29.4995 47.1902 30.0591 47.7498 30.7495 47.7498H33.6678L31.6944 49.7232C31.5746 49.8429 31.4806 49.9857 31.4178 50.1428L31.3749 50.2498H18.6072C17.9168 50.2498 17.3572 50.8094 17.3572 51.4998C17.3572 52.1902 17.9168 52.7498 18.6072 52.7498H30.3748L29.3748 55.2498H21.2788C20.5884 55.2498 20.0288 55.8094 20.0288 56.4998C20.0288 57.1902 20.5884 57.7498 21.2788 57.7498H30.22C30.2204 57.7498 30.2209 57.7498 30.2213 57.7498C30.262 57.7498 30.3029 57.7475 30.3436 57.7435C30.3613 57.7418 30.3785 57.7385 30.396 57.736C30.4181 57.7329 30.4403 57.7303 30.4623 57.7259C30.486 57.7213 30.5091 57.7149 30.5325 57.709C30.5478 57.705 30.5631 57.7018 30.5784 57.6973C30.6043 57.6895 30.6294 57.6803 30.6545 57.671C30.6648 57.6673 30.6753 57.6644 30.6854 57.6604L30.7041 57.6529C30.7058 57.6521 30.7075 57.6516 30.7091 57.6509L36.578 55.3033C36.7352 55.2404 36.8779 55.1463 36.9976 55.0267L46.9999 45.0244V61.5001H4.50012V2.49999H8.25023C8.9406 2.49999 9.50022 1.94037 9.50022 1.25C9.50022 0.559623 8.9406 0 8.25023 0H3.25C2.55962 0 2 0.559623 2 1.25V62.75C2 63.4404 2.55962 64 3.25 64H48.2498C48.9401 64 49.4998 63.4404 49.4998 62.75V42.5243L61.2453 30.7789C62.2525 29.7716 62.2525 28.1328 61.2454 27.1255ZM35.4112 53.0774L32.465 54.256L33.3723 51.9882C33.373 51.9863 33.3738 51.9844 33.3745 51.9825L33.6436 51.3098L52.5889 32.3643L54.3567 34.132L35.4112 53.0774ZM59.4775 29.0111L56.1244 32.3643L54.3567 30.5965L57.7098 27.2434C57.7399 27.2131 57.797 27.2129 57.8274 27.2434L59.4774 28.8934C59.5078 28.9236 59.5078 28.9809 59.4775 29.0111Z" fill="#4F4F4F"/>
<path d="M13.2504 2.5C13.9407 2.5 14.5004 1.94037 14.5004 1.25C14.5004 0.559625 13.9407 0 13.2504 0H13.2495C12.5591 0 12 0.559625 12 1.25C12 1.94037 12.56 2.5 13.2504 2.5Z" fill="#4F4F4F"/>
<path d="M25.7495 45.249C25.0591 45.249 24.5 45.8086 24.5 46.499C24.5 47.1894 25.06 47.749 25.7504 47.749C26.4407 47.749 27.0004 47.1894 27.0004 46.499C27.0004 45.8086 26.4407 45.249 25.7504 45.249H25.7495Z" fill="#4F4F4F"/>
</svg>
